<svg width="20" height="20" viewBox="0 0 20 20" fill="none" xmlns="http://www.w3.org/2000/svg">
<g opacity="0.5">
<path fill-rule="evenodd" clip-rule="evenodd" d="M6.66662 4.99984H4.99995V4.1665H3.3333V6.6665H16.6666V4.1665H15V4.99984H13.3333V4.1665H6.66662V4.99984ZM16.6666 8.33317H3.3333V16.6665H16.6666V8.33317ZM13.3333 2.49984H6.66662V1.6665H4.99995V2.49984H3.33329C2.41282 2.49984 1.66663 3.24603 1.66663 4.16651V16.6665C1.66663 17.587 2.41282 18.3332 3.33329 18.3332H16.6666C17.5871 18.3332 18.3333 17.587 18.3333 16.6665V4.16651C18.3333 3.24603 17.5871 2.49984 16.6666 2.49984H15V1.6665H13.3333V2.49984ZM7.49997 11.6665H5.8333V9.99984H7.49997V11.6665ZM9.16663 11.6665H10.8333V9.99984H9.16663V11.6665ZM14.1666 11.6665H12.4999V9.99984H14.1666V11.6665ZM5.8333 14.9998H7.49997V13.3332H5.8333V14.9998ZM10.8333 14.9998H9.16663V13.3332H10.8333V14.9998Z" fill="#181F47"/>
</g>
</svg>
