<svg width="18" height="27" viewBox="0 0 18 27" fill="none" xmlns="http://www.w3.org/2000/svg">
<path d="M14.7116 25.75H3.2872C1.86236 25.75 0.703125 24.5908 0.703125 23.1659V9.73329C0.703125 8.3084 1.86236 7.14922 3.2872 7.14922H14.7116C16.1364 7.14922 17.2957 8.3084 17.2957 9.73329V23.1659C17.2957 24.5908 16.1365 25.75 14.7116 25.75ZM3.2872 8.34743C2.52299 8.34743 1.90134 8.96912 1.90134 9.73329V23.1659C1.90134 23.93 2.52303 24.5518 3.2872 24.5518H14.7116C15.4758 24.5518 16.0974 23.9301 16.0974 23.1659V9.73329C16.0974 8.96917 15.4757 8.34743 14.7116 8.34743H3.2872Z" fill="white" stroke="white" stroke-width="0.75"/>
<path d="M12.0167 7.88416H5.9834C4.66786 7.88416 3.59766 6.81388 3.59766 5.49842C3.59766 4.18296 4.66786 3.11267 5.9834 3.11267H6.32038C6.61411 1.90536 7.71274 1 9.00007 1C10.2874 1 11.386 1.90536 11.6797 3.11258H12.0167C13.3322 3.11258 14.4024 4.18287 14.4024 5.49833C14.4024 6.81379 13.3322 7.88416 12.0167 7.88416ZM5.9834 4.31075C5.32853 4.31075 4.79583 4.84354 4.79583 5.49833C4.79583 6.15312 5.32853 6.68595 5.9834 6.68595H12.0167C12.6715 6.68595 13.2042 6.15316 13.2042 5.49837C13.2042 4.84359 12.6714 4.3108 12.0167 4.3108H11.1571C10.8311 4.3108 10.5649 4.05011 10.5582 3.72417C10.5407 2.88271 9.84163 2.19817 9.00003 2.19817C8.15843 2.19817 7.45935 2.88271 7.44186 3.72417C7.43509 4.05007 7.16887 4.3108 6.84289 4.3108H5.98336V4.31075H5.9834Z" fill="white" stroke="white" stroke-width="0.5"/>
<path d="M12.8083 12.5912H5.1909C4.86008 12.5912 4.5918 12.323 4.5918 11.9921C4.5918 11.6612 4.86008 11.393 5.1909 11.393H12.8083C13.1392 11.393 13.4074 11.6612 13.4074 11.9921C13.4074 12.3229 13.1392 12.5912 12.8083 12.5912Z" fill="white"/>
<path d="M12.8083 16.4H5.1909C4.86008 16.4 4.5918 16.1318 4.5918 15.8009C4.5918 15.47 4.86008 15.2018 5.1909 15.2018H12.8083C13.1392 15.2018 13.4074 15.47 13.4074 15.8009C13.4074 16.1318 13.1392 16.4 12.8083 16.4Z" fill="white"/>
<path d="M12.8083 20.2088H5.1909C4.86008 20.2088 4.5918 19.9406 4.5918 19.6097C4.5918 19.2788 4.86008 19.0106 5.1909 19.0106H12.8083C13.1392 19.0106 13.4074 19.2788 13.4074 19.6097C13.4074 19.9406 13.1392 20.2088 12.8083 20.2088Z" fill="white"/>
</svg>
