<svg width="20" height="20" viewBox="0 0 20 20" fill="none" xmlns="http://www.w3.org/2000/svg">
<path d="M9.99935 6.66667C9.34008 6.66667 8.69561 6.86216 8.14745 7.22844C7.59929 7.59471 7.17204 8.1153 6.91975 8.72439C6.66746 9.33348 6.60145 10.0037 6.73007 10.6503C6.85868 11.2969 7.17615 11.8908 7.64233 12.357C8.1085 12.8232 8.70245 13.1407 9.34905 13.2693C9.99565 13.3979 10.6659 13.3319 11.275 13.0796C11.884 12.8273 12.4046 12.4001 12.7709 11.8519C13.1372 11.3037 13.3327 10.6593 13.3327 10C13.3327 9.11595 12.9815 8.2681 12.3564 7.64298C11.7313 7.01786 10.8834 6.66667 9.99935 6.66667ZM9.99935 11.6667C9.66971 11.6667 9.34748 11.5689 9.0734 11.3858C8.79932 11.2026 8.5857 10.9424 8.45955 10.6378C8.33341 10.3333 8.3004 9.99815 8.36471 9.67485C8.42902 9.35155 8.58775 9.05458 8.82084 8.82149C9.05393 8.5884 9.3509 8.42967 9.6742 8.36536C9.9975 8.30105 10.3326 8.33406 10.6372 8.4602C10.9417 8.58635 11.202 8.79997 11.3851 9.07405C11.5683 9.34813 11.666 9.67037 11.666 10C11.666 10.442 11.4904 10.866 11.1779 11.1785C10.8653 11.4911 10.4414 11.6667 9.99935 11.6667Z" fill="white"/>
<path d="M17.7442 11.5833L17.3742 11.37C17.5408 10.4637 17.5408 9.53463 17.3742 8.62833L17.7442 8.415C18.0287 8.25085 18.2781 8.03226 18.4782 7.77172C18.6782 7.51118 18.825 7.21378 18.9101 6.89651C18.9953 6.57925 19.017 6.24832 18.9743 5.92263C18.9315 5.59694 18.825 5.28286 18.6609 4.99833C18.4967 4.7138 18.2781 4.46439 18.0176 4.26434C17.757 4.06428 17.4596 3.91751 17.1424 3.83239C16.8251 3.74726 16.4942 3.72547 16.1685 3.76824C15.8428 3.81101 15.5287 3.91751 15.2442 4.08167L14.8734 4.29583C14.173 3.69743 13.3681 3.23354 12.4992 2.9275V2.5C12.4992 1.83696 12.2358 1.20107 11.767 0.732233C11.2981 0.263392 10.6622 0 9.99918 0C9.33614 0 8.70026 0.263392 8.23142 0.732233C7.76257 1.20107 7.49918 1.83696 7.49918 2.5V2.9275C6.63034 3.23464 5.82572 3.69967 5.12585 4.29917L4.75335 4.08333C4.17871 3.75181 3.49592 3.66214 2.85517 3.83405C2.21442 4.00596 1.6682 4.42536 1.33668 5C1.00516 5.57464 0.915491 6.25743 1.0874 6.89818C1.25931 7.53893 1.67871 8.08515 2.25335 8.41667L2.62335 8.63C2.45677 9.5363 2.45677 10.4654 2.62335 11.3717L2.25335 11.585C1.67871 11.9165 1.25931 12.4627 1.0874 13.1035C0.915491 13.7442 1.00516 14.427 1.33668 15.0017C1.6682 15.5763 2.21442 15.9957 2.85517 16.1676C3.49592 16.3395 4.17871 16.2499 4.75335 15.9183L5.12418 15.7042C5.82482 16.3027 6.63 16.7666 7.49918 17.0725V17.5C7.49918 18.163 7.76257 18.7989 8.23142 19.2678C8.70026 19.7366 9.33614 20 9.99918 20C10.6622 20 11.2981 19.7366 11.767 19.2678C12.2358 18.7989 12.4992 18.163 12.4992 17.5V17.0725C13.368 16.7654 14.1726 16.3003 14.8725 15.7008L15.245 15.9158C15.8197 16.2474 16.5024 16.337 17.1432 16.1651C17.7839 15.9932 18.3302 15.5738 18.6617 14.9992C18.9932 14.4245 19.0829 13.7417 18.911 13.101C18.7391 12.4602 18.3197 11.914 17.745 11.5825L17.7442 11.5833ZM15.6209 8.43667C15.9031 9.45922 15.9031 10.5391 15.6209 11.5617C15.5716 11.7396 15.5828 11.9289 15.6528 12.0998C15.7228 12.2707 15.8476 12.4135 16.0075 12.5058L16.9109 13.0275C17.1024 13.138 17.2421 13.3201 17.2994 13.5336C17.3567 13.7472 17.3268 13.9747 17.2163 14.1663C17.1058 14.3578 16.9237 14.4975 16.7101 14.5548C16.4966 14.6121 16.269 14.5822 16.0775 14.4717L15.1725 13.9483C15.0124 13.8556 14.826 13.8188 14.6427 13.8437C14.4594 13.8686 14.2896 13.9538 14.16 14.0858C13.4183 14.843 12.4838 15.3833 11.4575 15.6483C11.2784 15.6944 11.1197 15.7987 11.0063 15.9449C10.893 16.0911 10.8316 16.2709 10.8317 16.4558V17.5C10.8317 17.721 10.7439 17.933 10.5876 18.0893C10.4313 18.2455 10.2194 18.3333 9.99835 18.3333C9.77734 18.3333 9.56537 18.2455 9.40909 18.0893C9.25281 17.933 9.16502 17.721 9.16502 17.5V16.4567C9.16511 16.2717 9.10366 16.092 8.99035 15.9458C8.87705 15.7996 8.71832 15.6952 8.53918 15.6492C7.51281 15.3831 6.57862 14.8416 5.83752 14.0833C5.70795 13.9513 5.53813 13.8661 5.35481 13.8412C5.17149 13.8163 4.9851 13.8531 4.82502 13.9458L3.92168 14.4683C3.82687 14.5239 3.72201 14.5602 3.61312 14.5751C3.50423 14.59 3.39348 14.5832 3.28723 14.5551C3.18098 14.527 3.08133 14.4782 2.99403 14.4114C2.90673 14.3446 2.8335 14.2613 2.77855 14.1661C2.72359 14.0709 2.68801 13.9658 2.67385 13.8568C2.65968 13.7479 2.66721 13.6372 2.69601 13.5311C2.7248 13.425 2.77429 13.3257 2.84163 13.2389C2.90896 13.152 2.99281 13.0793 3.08835 13.025L3.99168 12.5033C4.15164 12.411 4.27641 12.2682 4.3464 12.0973C4.41639 11.9264 4.42762 11.7371 4.37835 11.5592C4.09615 10.5366 4.09615 9.45672 4.37835 8.43417C4.42674 8.25657 4.41496 8.06795 4.34486 7.89774C4.27476 7.72754 4.15028 7.58534 3.99085 7.49333L3.08752 6.97167C2.89601 6.86116 2.75624 6.6791 2.69896 6.46555C2.64169 6.25199 2.67159 6.02442 2.7821 5.83292C2.89261 5.64141 3.07466 5.50164 3.28822 5.44437C3.50178 5.38709 3.72934 5.41699 3.92085 5.5275L4.82585 6.05083C4.9855 6.14376 5.1715 6.18101 5.35462 6.15672C5.53774 6.13244 5.70761 6.048 5.83752 5.91667C6.57925 5.15945 7.5137 4.61918 8.54002 4.35417C8.71971 4.30797 8.87885 4.20313 8.99221 4.05625C9.10558 3.90938 9.16668 3.72887 9.16585 3.54333V2.5C9.16585 2.27899 9.25365 2.06702 9.40993 1.91074C9.56621 1.75446 9.77817 1.66667 9.99918 1.66667C10.2202 1.66667 10.4322 1.75446 10.5884 1.91074C10.7447 2.06702 10.8325 2.27899 10.8325 2.5V3.54333C10.8324 3.7283 10.8939 3.90804 11.0072 4.05423C11.1205 4.20043 11.2792 4.30478 11.4584 4.35083C12.485 4.61679 13.4195 5.15824 14.1608 5.91667C14.2904 6.04872 14.4602 6.13391 14.6436 6.15881C14.8269 6.1837 15.0133 6.14689 15.1734 6.05417L16.0767 5.53167C16.1715 5.47609 16.2764 5.43981 16.3852 5.42492C16.4941 5.41003 16.6049 5.41683 16.7111 5.44492C16.8174 5.47301 16.917 5.52184 17.0043 5.58859C17.0916 5.65535 17.1649 5.73872 17.2198 5.83389C17.2748 5.92907 17.3104 6.03417 17.3245 6.14316C17.3387 6.25214 17.3312 6.36285 17.3024 6.46891C17.2736 6.57497 17.2241 6.67429 17.1567 6.76114C17.0894 6.848 17.0056 6.92068 16.91 6.975L16.0067 7.49667C15.8476 7.58892 15.7234 7.73123 15.6536 7.90141C15.5838 8.07159 15.5723 8.26008 15.6209 8.4375V8.43667Z" fill="white"/>
</svg>
