<svg width="20" height="20" viewBox="0 0 20 20" fill="none" xmlns="http://www.w3.org/2000/svg">
<g clip-path="url(#clip0_702_6)">
<path d="M11.5167 0.166658C8.98275 0.642714 6.7289 2.07487 5.22167 4.16666H4.16667C3.06214 4.16842 2.00336 4.60797 1.22234 5.38899C0.441316 6.17001 0.00176302 7.2288 0 8.33332L0 11.6667C0.00176302 12.7712 0.441316 13.83 1.22234 14.611C2.00336 15.392 3.06214 15.8316 4.16667 15.8333H5.22167C6.7292 17.9248 8.98291 19.3569 11.5167 19.8333C11.5664 19.843 11.6169 19.8478 11.6675 19.8475C11.8885 19.8475 12.1005 19.7597 12.2568 19.6034C12.413 19.4471 12.5008 19.2352 12.5008 19.0142V0.988324C12.5011 0.865936 12.4745 0.744982 12.4228 0.634059C12.371 0.523137 12.2955 0.424968 12.2016 0.346531C12.1076 0.268093 11.9976 0.211313 11.8792 0.180225C11.7608 0.149137 11.637 0.144505 11.5167 0.166658V0.166658ZM10.8333 17.9458C8.99532 17.3599 7.4149 16.1594 6.3575 14.5458C6.28195 14.4296 6.1786 14.3341 6.0568 14.2678C5.93501 14.2016 5.79862 14.1669 5.66 14.1667H4.16667C3.50363 14.1667 2.86774 13.9033 2.3989 13.4344C1.93006 12.9656 1.66667 12.3297 1.66667 11.6667V8.33332C1.66667 7.67028 1.93006 7.0344 2.3989 6.56556C2.86774 6.09672 3.50363 5.83332 4.16667 5.83332H5.66667C5.80514 5.83331 5.94142 5.79878 6.0632 5.73287C6.18499 5.66696 6.28842 5.57174 6.36417 5.45582C7.41941 3.84269 8.9974 2.64161 10.8333 2.05416V17.9458Z" fill="white"/>
<path d="M19.6947 11.7807C19.7902 11.873 19.8664 11.9833 19.9188 12.1053C19.9712 12.2273 19.9988 12.3585 20 12.4913C20.0011 12.6241 19.9758 12.7558 19.9255 12.8787C19.8753 13.0016 19.801 13.1132 19.7071 13.2071C19.6132 13.301 19.5016 13.3753 19.3787 13.4255C19.2558 13.4758 19.1241 13.5011 18.9913 13.5C18.8585 13.4988 18.7273 13.4712 18.6053 13.4188C18.4833 13.3664 18.373 13.2902 18.2807 13.1947L16.4877 11.4017L14.6947 13.1947C14.5061 13.3769 14.2535 13.4777 13.9913 13.4754C13.7291 13.4731 13.4783 13.3679 13.2929 13.1825C13.1075 12.9971 13.0023 12.7463 13 12.4841C12.9978 12.2219 13.0986 11.9693 13.2807 11.7807L15.0737 9.98771L13.2807 8.19471C13.0986 8.00611 12.9978 7.75351 13 7.49131C13.0023 7.22911 13.1075 6.9783 13.2929 6.79289C13.4783 6.60748 13.7291 6.50232 13.9913 6.50004C14.2535 6.49776 14.5061 6.59855 14.6947 6.78071L16.4877 8.57371L18.2807 6.78071C18.4693 6.59855 18.7219 6.49776 18.9841 6.50004C19.2463 6.50232 19.4971 6.60748 19.6825 6.79289C19.8679 6.9783 19.9731 7.22911 19.9754 7.49131C19.9777 7.75351 19.8769 8.00611 19.6947 8.19471L17.9017 9.98771L19.6947 11.7807Z" fill="white"/>
</g>
<defs>
<clipPath id="clip0_702_6">
<rect width="20" height="20" fill="white"/>
</clipPath>
</defs>
</svg>
