<svg width="20" height="20" viewBox="0 0 20 20" fill="none" xmlns="http://www.w3.org/2000/svg">
<g clip-path="url(#clip0_181_645)">
<path d="M18.3333 14.1667V15.8333C18.3333 16.4964 18.0699 17.1323 17.6011 17.6011C17.1323 18.0699 16.4964 18.3333 15.8333 18.3333L4.16667 18.3333C3.50363 18.3333 2.86774 18.0699 2.3989 17.6011C1.93006 17.1323 1.66667 16.4964 1.66667 15.8333L1.66667 14.1667C1.66667 13.9457 1.57887 13.7337 1.42259 13.5774C1.26631 13.4211 1.05435 13.3333 0.833333 13.3333C0.61232 13.3333 0.400358 13.4211 0.244078 13.5774C0.0877974 13.7337 0 13.9457 0 14.1667L0 15.8333C0.00132321 16.938 0.440735 17.997 1.22185 18.7782C2.00296 19.5593 3.062 19.9987 4.16667 20L15.8333 20C16.938 19.9987 17.997 19.5593 18.7782 18.7782C19.5593 17.997 19.9987 16.938 20 15.8333V14.1667C20 13.9457 19.9122 13.7337 19.7559 13.5774C19.5996 13.4211 19.3877 13.3333 19.1667 13.3333C18.9457 13.3333 18.7337 13.4211 18.5774 13.5774C18.4211 13.7337 18.3333 13.9457 18.3333 14.1667Z" fill="white"/>
<path d="M4.41066 11.2817L8.23232 15.1042C8.7019 15.5714 9.33738 15.8337 9.99982 15.8337C10.6623 15.8337 11.2977 15.5714 11.7673 15.1042L15.589 11.2825C15.6686 11.2056 15.7321 11.1137 15.7757 11.012C15.8194 10.9103 15.8424 10.801 15.8434 10.6903C15.8443 10.5797 15.8232 10.4699 15.7813 10.3675C15.7394 10.2651 15.6776 10.1721 15.5993 10.0938C15.5211 10.0156 15.428 9.95371 15.3256 9.91181C15.2232 9.86991 15.1135 9.84883 15.0028 9.84979C14.8922 9.85075 14.7828 9.87374 14.6812 9.91741C14.5795 9.96109 14.4875 10.0246 14.4107 10.1042L10.8332 13.68L10.8332 0.833331C10.8332 0.612317 10.7454 0.400355 10.5891 0.244075C10.4328 0.0877943 10.2208 -1.90735e-06 9.99982 -1.90735e-06C9.77881 -1.90735e-06 9.56685 0.0877943 9.41057 0.244075C9.25429 0.400355 9.16649 0.612317 9.16649 0.833331L9.16649 13.6808L5.58899 10.1033C5.51212 10.0237 5.42016 9.96025 5.31849 9.91658C5.21682 9.87291 5.10747 9.84992 4.99682 9.84896C4.88618 9.84799 4.77644 9.86908 4.67403 9.91098C4.57161 9.95288 4.47857 10.0148 4.40033 10.093C4.32208 10.1712 4.26021 10.2643 4.21831 10.3667C4.1764 10.4691 4.15532 10.5788 4.15628 10.6895C4.15724 10.8001 4.18023 10.9095 4.22391 11.0112C4.26758 11.1128 4.33107 11.2048 4.41066 11.2817Z" fill="white"/>
</g>
<defs>
<clipPath id="clip0_181_645">
<rect width="20" height="20" fill="white" transform="translate(0 20) rotate(-90)"/>
</clipPath>
</defs>
</svg>
