<svg width="20" height="20" viewBox="0 0 20 20" fill="none" xmlns="http://www.w3.org/2000/svg">
<g clip-path="url(#clip0_181_638)">
<path d="M17.3394 3.57499C17.262 3.49757 17.1701 3.43615 17.0689 3.39425C16.9677 3.35235 16.8593 3.33078 16.7498 3.33078C16.6403 3.33078 16.5319 3.35235 16.4307 3.39425C16.3296 3.43615 16.2377 3.49757 16.1602 3.57499C16.0828 3.65242 16.0214 3.74434 15.9795 3.8455C15.9376 3.94666 15.916 4.05508 15.916 4.16458C15.916 4.27407 15.9376 4.3825 15.9795 4.48366C16.0214 4.58482 16.0828 4.67673 16.1602 4.75416C17.5494 6.14658 18.3295 8.03313 18.3295 9.99999C18.3295 11.9669 17.5494 13.8534 16.1602 15.2458C16.0039 15.4022 15.916 15.6143 15.916 15.8354C15.916 16.0565 16.0039 16.2686 16.1602 16.425C16.3166 16.5814 16.5287 16.6692 16.7498 16.6692C16.9709 16.6692 17.183 16.5814 17.3394 16.425C19.0409 14.7196 19.9964 12.409 19.9964 9.99999C19.9964 7.59099 19.0409 5.28035 17.3394 3.57499Z" fill="white"/>
<path d="M15.0832 6.07583C15.0058 5.99813 14.9138 5.93644 14.8125 5.89429C14.7113 5.85213 14.6027 5.83033 14.493 5.83014C14.3833 5.82995 14.2747 5.85136 14.1732 5.89316C14.0718 5.93496 13.9796 5.99632 13.9019 6.07374C13.8242 6.15117 13.7626 6.24314 13.7204 6.34441C13.6782 6.44567 13.6564 6.55425 13.6563 6.66394C13.6561 6.77363 13.6775 6.88228 13.7193 6.98369C13.7611 7.08511 13.8224 7.1773 13.8999 7.25499C14.6271 7.9834 15.0356 8.97066 15.0356 9.99999C15.0356 11.0293 14.6271 12.0166 13.8999 12.745C13.8224 12.8227 13.7611 12.9149 13.7193 13.0163C13.6775 13.1177 13.6561 13.2264 13.6563 13.3361C13.6564 13.4457 13.6782 13.5543 13.7204 13.6556C13.7626 13.7568 13.8242 13.8488 13.9019 13.9262C14.0589 14.0826 14.2715 14.1702 14.493 14.1698C14.6027 14.1697 14.7113 14.1479 14.8125 14.1057C14.9138 14.0635 15.0058 14.0019 15.0832 13.9242C16.1226 12.8827 16.7064 11.4714 16.7064 9.99999C16.7064 8.52858 16.1226 7.11728 15.0832 6.07583Z" fill="white"/>
<path d="M11.5167 0.166673C8.98275 0.642729 6.7289 2.07488 5.22167 4.16667H4.16667C3.06214 4.16844 2.00336 4.60799 1.22234 5.38901C0.441316 6.17003 0.00176302 7.22881 0 8.33334L0 11.6667C0.00176302 12.7712 0.441316 13.83 1.22234 14.611C2.00336 15.392 3.06214 15.8316 4.16667 15.8333H5.22167C6.7292 17.9248 8.98291 19.3569 11.5167 19.8333C11.5664 19.843 11.6169 19.8478 11.6675 19.8475C11.8885 19.8475 12.1005 19.7597 12.2568 19.6034C12.413 19.4471 12.5008 19.2352 12.5008 19.0142V0.98834C12.5011 0.865951 12.4745 0.744998 12.4228 0.634075C12.371 0.523152 12.2955 0.424983 12.2016 0.346546C12.1076 0.268109 11.9976 0.211328 11.8792 0.18024C11.7608 0.149152 11.637 0.14452 11.5167 0.166673ZM10.8333 17.9458C8.99532 17.3599 7.4149 16.1594 6.3575 14.5458C6.28195 14.4296 6.1786 14.3341 6.0568 14.2679C5.93501 14.2017 5.79862 14.1669 5.66 14.1667H4.16667C3.50363 14.1667 2.86774 13.9033 2.3989 13.4344C1.93006 12.9656 1.66667 12.3297 1.66667 11.6667V8.33334C1.66667 7.6703 1.93006 7.03441 2.3989 6.56557C2.86774 6.09673 3.50363 5.83334 4.16667 5.83334H5.66667C5.80514 5.83332 5.94142 5.7988 6.0632 5.73289C6.18499 5.66698 6.28842 5.57176 6.36417 5.45584C7.41941 3.8427 8.9974 2.64163 10.8333 2.05417V17.9458Z" fill="white"/>
</g>
<defs>
<clipPath id="clip0_181_638">
<rect width="20" height="20" fill="white"/>
</clipPath>
</defs>
</svg>
