<?xml version="1.0" encoding="UTF-8" standalone="no"?>
<svg
   version="1.1"
   id="Layer_1"
   x="0px"
   y="0px"
   viewBox="0 0 20 20"
   xml:space="preserve"
   sodipodi:docname="gamepad_1.svg"
   width="20"
   height="20"
   inkscape:version="1.2 (1:1.2+202206011327+fc4e4096c5)"
   xmlns:inkscape="http://www.inkscape.org/namespaces/inkscape"
   xmlns:sodipodi="http://sodipodi.sourceforge.net/DTD/sodipodi-0.dtd"
   xmlns="http://www.w3.org/2000/svg"
   xmlns:svg="http://www.w3.org/2000/svg"><defs
     id="defs595" /><sodipodi:namedview
     id="namedview593"
     pagecolor="#505050"
     bordercolor="#eeeeee"
     borderopacity="1"
     inkscape:showpageshadow="0"
     inkscape:pageopacity="0"
     inkscape:pagecheckerboard="0"
     inkscape:deskcolor="#505050"
     showgrid="false"
     inkscape:zoom="42.545574"
     inkscape:cx="27.241377"
     inkscape:cy="11.893129"
     inkscape:window-width="3440"
     inkscape:window-height="1305"
     inkscape:window-x="0"
     inkscape:window-y="0"
     inkscape:window-maximized="1"
     inkscape:current-layer="g590" /><style
     type="text/css"
     id="style586">.st0{fill-rule:evenodd;clip-rule:evenodd;}</style><g
     id="g590"><path
       class="st0"
       d="M 3.8625789,15.474718 C 4.5147047,14.811293 5.286279,14.138184 5.85931,13.266531 h 8.301689 c 0.574645,0.870039 1.346221,1.544762 1.996731,2.208187 4.995864,5.087872 4.660116,-6.8311774 1.129922,-10.4114111 H 17.01647 c -0.443897,-0.742519 -1.310708,-1.2445273 -2.306652,-1.2445273 -0.995945,0 -1.861141,0.5020083 -2.305038,1.2445273 H 7.6171439 C 7.1732464,4.3207879 6.3064361,3.8187796 5.3104914,3.8187796 c -0.9959443,0 -1.8611407,0.5020083 -2.3066522,1.2445273 H 2.7326582 C -0.79753681,8.6435406 -1.1332848,20.560976 3.8625789,15.474718 Z M 4.9117908,5.8913776 H 6.7051367 V 7.3199202 H 8.133679 V 9.1132653 H 6.7051367 V 10.541808 H 4.9117908 V 9.1132653 H 3.4832484 V 7.3199202 H 4.9117908 Z M 13.516945,9.775076 c 0.434212,0 0.786101,0.351889 0.786101,0.786102 0,0.434212 -0.351889,0.787716 -0.786101,0.787716 -0.434213,0 -0.786102,-0.35189 -0.786102,-0.787716 0,-0.434213 0.351889,-0.786102 0.786102,-0.786102 z m 0.42937,-3.5011395 c 0.629527,0 1.139606,0.5100778 1.139606,1.1379909 0,0.6295272 -0.510079,1.1379919 -1.139606,1.1379919 -0.629528,0 -1.137992,-0.5100788 -1.137992,-1.1379919 0,-0.6279131 0.508464,-1.1379909 1.137992,-1.1379909 z m 2.941021,1.7594475 c 0.434213,0 0.786103,0.3518894 0.786103,0.7861014 0,0.4342129 -0.35189,0.7861023 -0.786103,0.7861023 -0.434212,0 -0.787715,-0.3518894 -0.787715,-0.7861023 0,-0.434212 0.353503,-0.7861014 0.787715,-0.7861014 z"
       id="path588"
       style="stroke-width:0.161418;fill:#ffffff" /></g></svg>
