<svg width="225" height="68" viewBox="0 0 225 68" fill="none" xmlns="http://www.w3.org/2000/svg">
<path d="M9.44584 56.983L64.6676 0.730552L65.3942 0V62.0969L60.308 67.2107H18.8917L37.0567 48.947L43.5962 55.5219H54.4952L37.7833 38.7192L9.44584 67.2107H0V0H53.042L18.8917 34.3359V21.9165L31.9705 8.76662H9.44584V56.983Z" fill="#0085C2"/>
<path d="M102.616 33.4305L94.603 41.6479V51.0391H92V15.3115H94.603V38.2793L116.907 15.3115H120.072L104.352 31.5421L121.143 51.0391H117.979L102.616 33.4305Z" fill="#F8FCFE"/>
<path d="M135.356 24.1924C138.656 24.1924 141.191 25.043 142.96 26.7444C144.73 28.4116 145.615 30.8785 145.615 34.1451V51.0391H143.165V46.2924C142.314 47.8577 141.072 49.0826 139.439 49.9673C137.805 50.8179 135.849 51.2433 133.569 51.2433C130.609 51.2433 128.261 50.5457 126.526 49.1507C124.824 47.7556 123.974 45.9182 123.974 43.6384C123.974 41.4267 124.756 39.6403 126.322 38.2793C127.921 36.8842 130.456 36.1866 133.926 36.1866H143.063V34.043C143.063 31.5591 142.382 29.6706 141.021 28.3776C139.694 27.0846 137.737 26.4381 135.151 26.4381C133.382 26.4381 131.681 26.7444 130.047 27.3568C128.448 27.9693 127.087 28.7859 125.964 29.8067L124.688 27.9693C126.015 26.7784 127.615 25.8597 129.486 25.2132C131.357 24.5326 133.314 24.1924 135.356 24.1924ZM133.926 49.1507C136.138 49.1507 138.01 48.6403 139.541 47.6195C141.106 46.5987 142.28 45.1185 143.063 43.179V38.1772H133.978C131.357 38.1772 129.452 38.6536 128.261 39.6063C127.104 40.559 126.526 41.869 126.526 43.5363C126.526 45.2717 127.172 46.6497 128.465 47.6705C129.758 48.6573 131.579 49.1507 133.926 49.1507Z" fill="#F8FCFE"/>
<path d="M162.866 51.2433C160.723 51.2433 158.681 50.92 156.741 50.2735C154.802 49.627 153.288 48.8104 152.199 47.8236L153.373 45.7821C154.462 46.7008 155.857 47.4664 157.558 48.0788C159.293 48.6913 161.097 48.9975 162.968 48.9975C165.656 48.9975 167.63 48.5552 168.889 47.6705C170.182 46.7858 170.828 45.5609 170.828 43.9957C170.828 42.8728 170.471 41.9881 169.757 41.3416C169.076 40.6951 168.225 40.2188 167.205 39.9125C166.184 39.6063 164.772 39.283 162.968 38.9428C160.859 38.5685 159.157 38.1602 157.864 37.7178C156.571 37.2755 155.466 36.5609 154.547 35.5742C153.628 34.5874 153.169 33.2264 153.169 31.491C153.169 29.3814 154.036 27.646 155.772 26.285C157.541 24.8899 160.042 24.1924 163.275 24.1924C164.976 24.1924 166.66 24.4306 168.327 24.9069C169.995 25.3833 171.356 26.0128 172.411 26.7954L171.237 28.837C170.148 28.0544 168.906 27.4589 167.511 27.0506C166.116 26.6423 164.687 26.4381 163.223 26.4381C160.74 26.4381 158.868 26.8975 157.609 27.8162C156.35 28.7349 155.721 29.9428 155.721 31.44C155.721 32.6309 156.078 33.5666 156.793 34.2471C157.507 34.8936 158.375 35.387 159.396 35.7273C160.45 36.0335 161.913 36.3738 163.785 36.7481C165.861 37.1224 167.528 37.5307 168.787 37.973C170.08 38.3813 171.169 39.0619 172.053 40.0146C172.938 40.9673 173.38 42.2773 173.38 43.9446C173.38 46.1563 172.462 47.9257 170.624 49.2527C168.787 50.5798 166.201 51.2433 162.866 51.2433Z" fill="#F8FCFE"/>
<path d="M213.678 24.1924C216.978 24.1924 219.564 25.1621 221.436 27.1016C223.341 29.0411 224.294 31.8313 224.294 35.4721V51.0391H221.742V35.6763C221.742 32.6819 221.011 30.4022 219.547 28.837C218.084 27.2718 216.043 26.4892 213.423 26.4892C210.428 26.4892 208.047 27.4249 206.277 29.2963C204.542 31.1678 203.674 33.6857 203.674 36.8502V51.0391H201.122V35.6763C201.122 32.6819 200.391 30.4022 198.928 28.837C197.464 27.2718 195.423 26.4892 192.803 26.4892C189.809 26.4892 187.427 27.4249 185.657 29.2963C183.922 31.1678 183.054 33.6857 183.054 36.8502V51.0391H180.502V24.3965H182.952V30.113C183.837 28.2415 185.147 26.7954 186.882 25.7746C188.652 24.7198 190.744 24.1924 193.16 24.1924C195.576 24.1924 197.618 24.7368 199.285 25.8256C200.986 26.9145 202.194 28.5137 202.909 30.6234C203.793 28.6498 205.171 27.0846 207.043 25.9277C208.948 24.7708 211.16 24.1924 213.678 24.1924Z" fill="#F8FCFE"/>
</svg>
