<?xml version="1.0" encoding="utf-8"?>
<!-- Generator: Adobe Illustrator 22.1.0, SVG Export Plug-In . SVG Version: 6.00 Build 0)  -->
<svg version="1.1" id="Layer_1" xmlns="http://www.w3.org/2000/svg" xmlns:xlink="http://www.w3.org/1999/xlink" x="0px" y="0px"
	 width="20px" height="20px" viewBox="0 0 20 20" style="enable-background:new 0 0 20 20;" xml:space="preserve">
<style type="text/css">
	.st0{fill:#FFFFFF;}
</style>
<path class="st0" d="M0.7,9.4h12.5c0.4,0,0.6,0.3,0.6,0.6s-0.3,0.6-0.6,0.6H0.7c-0.4,0-0.6-0.3-0.6-0.6S0.3,9.4,0.7,9.4z"/>
<path class="st0" d="M9.8,5.9c0.2,0,0.3,0.1,0.5,0.2l3.5,3.5c0.3,0.3,0.3,0.7,0,0.9l-3.5,3.5c-0.3,0.3-0.7,0.3-0.9,0
	c-0.3-0.3-0.3-0.7,0-0.9l3-3l-3-3c-0.3-0.3-0.3-0.7,0-0.9C9.5,6,9.6,5.9,9.8,5.9z"/>
<path class="st0" d="M10.4,0.5c5.2,0,9.5,4.3,9.5,9.5s-4.3,9.5-9.5,9.5c-3.9,0-7.4-2.4-8.9-6c-0.1-0.3,0-0.7,0.4-0.8
	c0.3-0.1,0.7,0,0.8,0.4c1.2,3.2,4.2,5.2,7.6,5.2c4.5,0,8.2-3.7,8.2-8.2S15,1.8,10.4,1.8C7,1.8,4,3.8,2.8,7C2.7,7.3,2.3,7.5,1.9,7.4
	C1.6,7.2,1.4,6.9,1.6,6.5C3,2.9,6.5,0.5,10.4,0.5z"/>
</svg>
