<svg width="20" height="24" viewBox="0 0 20 24" fill="none" xmlns="http://www.w3.org/2000/svg">
<path d="M8.06244 13.5558L6.94139 14.6768C6.19618 13.817 5.78683 12.7168 5.78876 11.579V5.26316C5.78876 4.00687 6.28782 2.80204 7.17615 1.91371C8.06448 1.02538 9.26931 0.526321 10.5256 0.526321C11.7819 0.526321 12.9867 1.02538 13.875 1.91371C14.7634 2.80204 15.2624 4.00687 15.2624 5.26316V6.35737L13.6835 7.93632V5.26316C13.6835 4.42564 13.3508 3.62241 12.7586 3.03019C12.1663 2.43797 11.3631 2.10527 10.5256 2.10527C9.68807 2.10527 8.88485 2.43797 8.29263 3.03019C7.70041 3.62241 7.3677 4.42564 7.3677 5.26316V11.579C7.3677 12.3274 7.62823 13.0158 8.06244 13.5558ZM9.34454 14.5079C9.82387 14.7012 10.3433 14.7739 10.8573 14.7196C11.3713 14.6653 11.864 14.4857 12.2924 14.1966C12.7208 13.9074 13.0716 13.5175 13.3142 13.0611C13.5567 12.6047 13.6835 12.0958 13.6835 11.579V10.169L15.2624 8.59V11.579C15.2627 12.4098 15.0445 13.2261 14.6296 13.946C14.2147 14.6658 13.6177 15.2639 12.8987 15.6801C12.1796 16.0964 11.3637 16.3162 10.5328 16.3174C9.70199 16.3187 8.88541 16.1014 8.16507 15.6874L9.34454 14.5079ZM5.66244 18.19L6.80086 17.0532C7.68026 17.6051 8.69789 17.8968 9.73612 17.8947H11.3151C12.7807 17.8947 14.1864 17.3125 15.2228 16.2761C16.2591 15.2397 16.8414 13.8341 16.8414 12.3684V11.579C16.8414 11.3696 16.9246 11.1688 17.0726 11.0207C17.2207 10.8727 17.4215 10.7895 17.6309 10.7895C17.8402 10.7895 18.041 10.8727 18.1891 11.0207C18.3371 11.1688 18.4203 11.3696 18.4203 11.579V12.3684C18.4203 14.2529 17.6717 16.0601 16.3392 17.3926C15.0067 18.7251 13.1995 19.4737 11.3151 19.4737V21.0526H12.894C13.1034 21.0526 13.3042 21.1358 13.4523 21.2839C13.6003 21.4319 13.6835 21.6327 13.6835 21.8421C13.6835 22.0515 13.6003 22.2523 13.4523 22.4004C13.3042 22.5484 13.1034 22.6316 12.894 22.6316H8.15718C7.9478 22.6316 7.74699 22.5484 7.59894 22.4004C7.45088 22.2523 7.3677 22.0515 7.3677 21.8421C7.3677 21.6327 7.45088 21.4319 7.59894 21.2839C7.74699 21.1358 7.9478 21.0526 8.15718 21.0526H9.73612V19.4737C8.22034 19.4737 6.81507 19 5.66244 18.19ZM4.47508 17.1447C3.28603 15.8384 2.62825 14.1348 2.63087 12.3684V11.579C2.63087 11.3696 2.71404 11.1688 2.8621 11.0207C3.01015 10.8727 3.21096 10.7895 3.42034 10.7895C3.62972 10.7895 3.83053 10.8727 3.97858 11.0207C4.12664 11.1688 4.20981 11.3696 4.20981 11.579V12.3684C4.20981 13.7705 4.73244 15.0526 5.59297 16.0268L4.47508 17.1447Z" fill="white"/>
<path d="M1.61407 20.1416C1.46581 20.2862 1.26668 20.3667 1.05961 20.3658C0.852533 20.3649 0.654089 20.2828 0.507043 20.137C0.359997 19.9912 0.276125 19.7934 0.273501 19.5863C0.270877 19.3793 0.349713 19.1795 0.493017 19.03L17.8614 1.54948C18.0097 1.40491 18.2088 1.32438 18.4159 1.32525C18.623 1.32611 18.8214 1.40831 18.9685 1.55411C19.1155 1.69991 19.1994 1.89765 19.202 2.10471C19.2046 2.31177 19.1258 2.51157 18.9825 2.66106L1.61407 20.1416Z" fill="white"/>
</svg>
