<?xml version="1.0" standalone="no"?>
<!DOCTYPE svg PUBLIC "-//W3C//DTD SVG 20010904//EN"
 "http://www.w3.org/TR/2001/REC-SVG-20010904/DTD/svg10.dtd">
<svg version="1.0" xmlns="http://www.w3.org/2000/svg"
 width="1083.000000pt" height="500.000000pt" viewBox="0 0 1083.000000 500.000000"
 preserveAspectRatio="xMidYMid meet">

<g transform="translate(0.000000,500.000000) scale(0.100000,-0.100000)"
fill="#000000" stroke="none">
<path d="M2290 4994 c-1017 -73 -1759 -590 -2099 -1462 -227 -583 -250 -1312
-60 -1906 126 -395 310 -698 585 -967 365 -354 798 -552 1394 -636 101 -14
189 -17 460 -16 498 2 925 25 1540 83 673 63 837 72 1305 72 424 0 637 -13
1205 -72 529 -54 728 -68 1215 -81 456 -12 703 -8 890 16 575 75 1025 281
1389 634 382 372 611 853 692 1453 23 169 23 573 0 753 -135 1059 -745 1786
-1701 2029 -55 14 -152 35 -215 45 -231 39 -344 44 -938 38 -593 -6 -767 -15
-1217 -62 -639 -68 -794 -77 -1310 -78 -532 0 -721 11 -1315 78 -281 32 -537
53 -790 65 -225 10 -942 20 -1030 14z m6448 -789 c386 -60 712 -224 982 -495
333 -333 510 -759 510 -1230 0 -463 -165 -875 -485 -1209 -265 -276 -597 -449
-996 -518 -99 -17 -272 -18 -3334 -18 -3062 0 -3235 1 -3334 18 -399 69 -731
242 -996 518 -320 334 -485 746 -485 1209 0 471 177 897 510 1230 265 266 576
425 955 490 93 16 324 18 3338 19 2845 1 3249 -1 3335 -14z"/>
<path d="M2270 2925 l0 -655 65 0 65 0 0 655 0 655 -65 0 -65 0 0 -655z"/>
<path d="M2010 3407 c-349 -145 -568 -431 -611 -797 -27 -236 36 -477 176
-675 47 -67 168 -185 236 -232 194 -133 449 -189 680 -148 374 65 655 329 761
713 29 103 31 351 5 456 -59 234 -201 444 -393 576 -72 50 -190 110 -217 110
-7 0 -19 -17 -26 -37 -8 -21 -16 -43 -18 -49 -2 -6 31 -28 73 -48 234 -111
397 -308 465 -561 29 -107 31 -286 5 -400 -24 -107 -100 -264 -169 -350 -218
-272 -574 -376 -904 -265 -123 41 -215 100 -318 204 -104 105 -158 193 -206
336 -28 82 -33 113 -37 226 -3 102 -1 149 13 209 60 272 224 482 464 597 47
23 88 42 90 44 4 4 -30 94 -38 98 -3 2 -17 -1 -31 -7z"/>
<path d="M4857 2923 c-18 -46 -29 -106 -37 -187 l-11 -118 27 -35 c30 -39 51
-50 66 -35 6 6 19 95 30 198 19 185 19 189 0 214 -33 44 -47 37 -75 -37z"/>
<path d="M5105 2965 c-14 -13 -25 -28 -25 -33 0 -5 24 -19 53 -31 47 -19 68
-21 206 -19 l154 3 23 53 23 52 -205 0 c-204 0 -205 0 -229 -25z"/>
<path d="M5535 2934 c-19 -43 -28 -88 -37 -190 l-12 -135 37 -37 c54 -54 62
-40 81 148 21 203 21 225 -4 250 -11 11 -25 20 -30 20 -6 0 -21 -25 -35 -56z"/>
<path d="M5775 2958 l-27 -32 43 -20 c39 -18 65 -21 209 -21 l165 0 22 45 c12
25 22 48 22 53 1 4 -91 7 -203 7 l-204 0 -27 -32z"/>
<path d="M6207 2923 c-18 -46 -29 -106 -37 -187 l-11 -118 27 -35 c30 -39 51
-50 66 -35 6 6 19 95 30 198 19 185 19 189 0 214 -33 44 -47 37 -75 -37z"/>
<path d="M7275 2934 c-19 -43 -28 -88 -37 -190 l-12 -135 37 -37 c54 -54 62
-40 81 148 21 203 21 225 -4 250 -11 11 -25 20 -30 20 -6 0 -21 -25 -35 -56z"/>
<path d="M7515 2958 l-27 -32 43 -20 c38 -18 69 -21 226 -24 l182 -3 26 50
c14 28 25 53 25 56 0 3 -101 5 -224 5 l-224 0 -27 -32z"/>
<path d="M8196 2969 c-38 -30 -33 -44 25 -68 46 -19 71 -21 223 -21 l172 0 27
55 27 55 -224 0 c-211 0 -225 -1 -250 -21z"/>
<path d="M6816 2928 c-10 -30 -37 -368 -31 -377 11 -19 30 -12 69 28 l38 39
15 138 c8 75 10 140 6 144 -4 4 -27 14 -51 24 -33 12 -43 13 -46 4z"/>
<path d="M7486 2888 c-3 -7 -11 -83 -19 -168 -13 -130 -13 -157 -2 -169 12
-12 20 -9 58 22 l44 36 11 114 c7 62 12 119 12 125 0 7 -21 22 -46 32 -54 24
-54 24 -58 8z"/>
<path d="M8160 2888 c0 -7 -7 -74 -15 -148 -8 -74 -15 -148 -15 -163 0 -45 27
-45 72 0 l39 40 13 122 12 122 -31 13 c-60 25 -75 28 -75 14z"/>
<path d="M5115 2550 l-29 -30 24 -25 c23 -25 25 -25 194 -25 168 1 171 1 200
26 l29 25 -29 30 -28 29 -166 0 -166 0 -29 -30z"/>
<path d="M5793 2552 l-31 -27 22 -27 22 -28 175 0 c171 0 176 1 197 23 28 29
28 38 -1 65 -22 21 -32 22 -188 22 -164 -1 -164 -1 -196 -28z"/>
<path d="M6855 2550 l-29 -30 24 -25 c23 -25 25 -25 194 -25 168 1 171 1 200
26 l29 25 -29 30 -28 29 -166 0 -166 0 -29 -30z"/>
<path d="M7533 2552 l-31 -27 20 -28 20 -27 177 0 c173 0 178 1 199 23 28 29
28 38 -1 65 -22 21 -32 22 -188 22 -164 -1 -164 -1 -196 -28z"/>
<path d="M8205 2550 l-29 -30 24 -25 c23 -25 25 -25 195 -25 l171 0 27 28 27
28 -28 27 -28 27 -165 0 -165 0 -29 -30z"/>
<path d="M4833 2470 l-42 -39 -14 -138 c-11 -118 -11 -145 1 -185 15 -52 27
-58 62 -30 26 21 32 52 50 258 13 134 11 174 -7 174 -4 0 -27 -18 -50 -40z"/>
<path d="M5042 2497 c-12 -14 -48 -334 -39 -343 3 -4 28 1 55 10 56 19 53 11
68 188 7 76 6 77 -26 117 -34 44 -42 48 -58 28z"/>
<path d="M6183 2470 l-42 -39 -14 -138 c-11 -118 -11 -145 1 -185 15 -52 27
-58 62 -30 26 21 32 52 50 258 13 134 11 174 -7 174 -4 0 -27 -18 -50 -40z"/>
<path d="M7248 2468 l-45 -43 -12 -132 c-11 -128 -5 -210 19 -236 4 -5 22 4
40 20 l32 29 20 189 c16 163 17 190 5 203 -13 12 -21 8 -59 -30z"/>
<path d="M7923 2471 l-41 -37 -14 -139 c-13 -121 -12 -145 0 -191 l15 -53 28
15 c16 8 33 22 38 32 5 10 17 95 27 189 15 158 14 224 -4 223 -4 -1 -26 -18
-49 -39z"/>
<path d="M8131 2496 c-12 -15 -48 -333 -38 -342 9 -9 107 26 107 39 0 6 5 61
11 123 l12 112 -33 41 c-37 45 -42 48 -59 27z"/>
<path d="M8598 2471 l-44 -40 -13 -139 c-10 -112 -10 -148 0 -183 17 -62 23
-64 58 -32 l32 28 20 190 c16 162 17 191 5 203 -12 12 -20 8 -58 -27z"/>
<path d="M5048 2142 c-56 -18 -62 -40 -22 -71 25 -20 39 -21 240 -21 144 0
214 3 214 11 0 5 -5 30 -11 55 l-11 44 -182 -1 c-136 -1 -193 -5 -228 -17z"/>
<path d="M5720 2141 c-24 -10 -46 -23 -48 -29 -2 -6 8 -23 22 -37 l25 -25 201
0 202 0 -7 33 c-19 82 -5 77 -187 76 -133 0 -171 -3 -208 -18z"/>
<path d="M7460 2141 c-24 -10 -46 -23 -48 -29 -2 -6 8 -23 22 -37 l25 -25 201
0 c110 0 200 3 200 8 0 4 -6 27 -14 52 l-13 45 -164 2 c-139 2 -171 -1 -209
-16z"/>
<path d="M8145 2144 c-22 -8 -46 -16 -52 -19 -19 -7 4 -50 34 -64 32 -15 403
-15 403 0 0 5 -5 30 -11 55 l-11 44 -162 -1 c-113 0 -173 -5 -201 -15z"/>
</g>
</svg>
