<svg width="5" height="8" viewBox="0 0 5 8" fill="none" xmlns="http://www.w3.org/2000/svg">
<path d="M0.16389 7.53556C0.0597396 7.43137 0.00123119 7.29009 0.00123119 7.14278C0.00123119 6.99547 0.0597396 6.85418 0.16389 6.75L2.91389 4.00001L0.16389 1.25001C0.0626912 1.14523 0.00669432 1.0049 0.00796032 0.859231C0.00922585 0.713566 0.0676532 0.574226 0.170658 0.471222C0.273662 0.368217 0.413002 0.309791 0.558667 0.308525C0.704332 0.30726 0.844667 0.363256 0.949446 0.464455L4.09222 3.60723C4.19637 3.71141 4.25488 3.85269 4.25488 4.00001C4.25488 4.14732 4.19637 4.2886 4.09222 4.39278L0.949446 7.53556C0.845263 7.63971 0.703981 7.69822 0.556668 7.69822C0.409354 7.69822 0.268072 7.63971 0.16389 7.53556Z" fill="white"/>
</svg>
