<svg width="20" height="20" viewBox="0 0 20 20" fill="none" xmlns="http://www.w3.org/2000/svg">
<path d="M16.1115 12.2225C15.4814 12.223 14.8609 12.3768 14.3036 12.6707C13.7462 12.9645 13.2687 13.3896 12.9123 13.9092L7.48813 11.46C7.87339 10.5297 7.87489 9.48474 7.4923 8.55333L12.909 6.09167C13.4372 6.85563 14.2217 7.40497 15.1203 7.64004C16.0189 7.87511 16.9719 7.78034 17.8066 7.37292C18.6412 6.9655 19.3022 6.27242 19.6697 5.41939C20.0371 4.56636 20.0866 3.60989 19.8093 2.72348C19.5319 1.83706 18.946 1.07941 18.1579 0.587963C17.3698 0.0965119 16.4316 -0.0961893 15.5136 0.0448136C14.5956 0.185817 13.7585 0.651184 13.1542 1.3565C12.5499 2.06182 12.2184 2.96037 12.2198 3.88917C12.2233 4.109 12.2456 4.32813 12.2865 4.54417L6.52814 7.16083C5.97509 6.64268 5.28273 6.29736 4.53611 6.1673C3.7895 6.03724 3.02116 6.1281 2.32548 6.42871C1.62979 6.72933 1.03707 7.22661 0.620132 7.85947C0.203191 8.49232 -0.0198099 9.23319 -0.021475 9.99104C-0.0231401 10.7489 0.196603 11.4907 0.610759 12.1254C1.02492 12.7601 1.61545 13.26 2.3098 13.5636C3.00415 13.8673 3.77209 13.9616 4.51927 13.8348C5.26644 13.708 5.96031 13.3657 6.51564 12.85L12.289 15.4567C12.2489 15.6725 12.2268 15.8913 12.2231 16.1108C12.223 16.8801 12.4509 17.6322 12.8782 18.2719C13.3055 18.9116 13.9129 19.4102 14.6236 19.7046C15.3343 19.9991 16.1163 20.0762 16.8708 19.9261C17.6253 19.7761 18.3184 19.4057 18.8624 18.8617C19.4063 18.3178 19.7767 17.6247 19.9268 16.8702C20.0768 16.1157 19.9997 15.3336 19.7053 14.623C19.4108 13.9123 18.9122 13.3049 18.2725 12.8776C17.6328 12.4503 16.8807 12.2223 16.1115 12.2225ZM16.1115 1.66667C16.5511 1.6665 16.9809 1.79671 17.3465 2.04082C17.712 2.28493 17.997 2.63198 18.1654 3.03808C18.3337 3.44417 18.3779 3.89107 18.2922 4.32224C18.2065 4.75342 17.9949 5.14951 17.6841 5.46042C17.3734 5.77132 16.9773 5.98308 16.5462 6.0689C16.1151 6.15472 15.6681 6.11076 15.262 5.94257C14.8558 5.77438 14.5087 5.48951 14.2644 5.12401C14.0202 4.7585 13.8898 4.32877 13.8898 3.88917C13.8902 3.3 14.1244 2.73508 14.541 2.3184C14.9575 1.90172 15.5223 1.66733 16.1115 1.66667ZM3.8898 12.2225C3.4502 12.2227 3.02042 12.0925 2.65482 11.8483C2.28922 11.6042 2.00423 11.2572 1.83589 10.8511C1.66754 10.445 1.62341 9.9981 1.70907 9.56692C1.79473 9.13575 2.00634 8.73966 2.31713 8.42875C2.62792 8.11784 3.02393 7.90609 3.45507 7.82027C3.88622 7.73444 4.33313 7.77841 4.73929 7.9466C5.14545 8.11479 5.4926 8.39965 5.73685 8.76516C5.9811 9.13066 6.11147 9.5604 6.11147 10C6.11081 10.5891 5.87655 11.1539 5.46008 11.5705C5.0436 11.9872 4.4789 12.2216 3.8898 12.2225ZM16.1115 18.3333C15.6719 18.3333 15.2422 18.203 14.8767 17.9588C14.5112 17.7146 14.2264 17.3675 14.0581 16.9613C13.8899 16.5552 13.8459 16.1084 13.9317 15.6772C14.0174 15.2461 14.2291 14.8501 14.5399 14.5393C14.8507 14.2285 15.2468 14.0168 15.6779 13.931C16.109 13.8453 16.5559 13.8893 16.962 14.0575C17.3681 14.2257 17.7152 14.5106 17.9594 14.8761C18.2036 15.2416 18.334 15.6713 18.334 16.1108C18.3335 16.7001 18.0992 17.2652 17.6825 17.6819C17.2658 18.0986 16.7008 18.3329 16.1115 18.3333Z" fill="white"/>
</svg>
