<svg width="20" height="20" viewBox="0 0 20 20" fill="none" xmlns="http://www.w3.org/2000/svg">
<g clip-path="url(#clip0_181_655)">
<path d="M19.9167 9.53084C19.5893 7.01035 18.3144 4.70911 16.3512 3.09487C14.388 1.48062 11.8837 0.674509 9.34747 0.840373C6.81122 1.00624 4.4333 2.13163 2.69703 3.98782C0.960757 5.844 -0.00356686 8.29167 6.17117e-05 10.8333C-0.00474195 12.1938 0.270943 13.5406 0.809907 14.7897C1.34887 16.0388 2.13954 17.1634 3.13256 18.0933C3.89201 18.7965 4.89269 19.1807 5.92756 19.1667H14.0667C15.16 19.1692 16.2104 18.7415 16.9909 17.9758C18.1031 16.8937 18.947 15.5665 19.455 14.1002C19.963 12.6339 20.1211 11.0691 19.9167 9.53084ZM15.8259 16.7808C15.357 17.2428 14.7249 17.5012 14.0667 17.5H5.92756C5.31862 17.5125 4.72797 17.2916 4.27673 16.8825C3.44946 16.1076 2.79075 15.1705 2.34169 14.1298C1.89264 13.089 1.66287 11.9668 1.66673 10.8333C1.66755 9.6602 1.91571 8.50042 2.39501 7.42967C2.87431 6.35892 3.57399 5.40126 4.44839 4.61917C5.96768 3.24909 7.94259 2.49364 9.98839 2.5C10.3153 2.50014 10.6419 2.5185 10.9667 2.555C12.5297 2.73653 14.0093 3.35714 15.2342 4.34494C16.459 5.33274 17.3789 6.64731 17.8874 8.13641C18.3959 9.6255 18.4721 11.2282 18.1073 12.7588C17.7424 14.2894 16.9514 15.6854 15.8259 16.785V16.7808ZM6.50589 14.4042C6.66392 14.5589 6.75401 14.77 6.75636 14.9912C6.7587 15.2123 6.6731 15.4253 6.51839 15.5833C6.36368 15.7414 6.15254 15.8315 5.9314 15.8338C5.71026 15.8361 5.49725 15.7505 5.33923 15.5958C4.39336 14.6693 3.74481 13.4821 3.47624 12.1856C3.20766 10.8891 3.33124 9.54195 3.83122 8.31593C4.33119 7.08991 5.18491 6.04054 6.28356 5.30157C7.38221 4.5626 8.67601 4.16751 10.0001 4.16667C10.3188 4.16658 10.6371 4.18913 10.9526 4.23417C11.0609 4.24979 11.1651 4.2866 11.2592 4.34251C11.3534 4.39842 11.4355 4.47233 11.5011 4.56001C11.5666 4.64769 11.6143 4.74743 11.6413 4.85352C11.6683 4.95962 11.6741 5.06999 11.6584 5.17833C11.644 5.28727 11.6081 5.39225 11.5525 5.48707C11.497 5.5819 11.4231 5.66467 11.3351 5.73051C11.2472 5.79635 11.1469 5.84394 11.0403 5.87047C10.9337 5.897 10.8228 5.90194 10.7142 5.885C9.6713 5.73603 8.60796 5.9203 7.67597 6.4115C6.74398 6.90271 5.99095 7.67574 5.52436 8.6203C5.05777 9.56485 4.90145 10.6327 5.07771 11.6713C5.25397 12.71 5.75381 13.6664 6.50589 14.4042ZM16.5992 9.88084C16.6443 10.1963 16.6668 10.5146 16.6667 10.8333C16.6694 11.7214 16.4931 12.6009 16.1484 13.4193C15.8036 14.2377 15.2974 14.9782 14.6601 15.5967C14.5018 15.7514 14.2886 15.8369 14.0673 15.8344C13.846 15.8319 13.6348 15.7416 13.4801 15.5833C13.3254 15.4251 13.2398 15.2119 13.2423 14.9906C13.2448 14.7693 13.3351 14.558 13.4934 14.4033C14.0564 13.8545 14.4816 13.1803 14.7342 12.4357C14.9868 11.6911 15.0596 10.8973 14.9467 10.1192C14.9151 9.90025 14.9718 9.67775 15.1042 9.50061C15.2367 9.32346 15.4341 9.20619 15.653 9.17458C15.8719 9.14298 16.0944 9.19963 16.2715 9.33208C16.4487 9.46453 16.566 9.66192 16.5976 9.88084H16.5992ZM11.6051 10.4067C11.7053 10.7673 11.6834 11.151 11.5426 11.4978C11.4018 11.8446 11.1501 12.1351 10.8268 12.3237C10.5035 12.5124 10.1269 12.5887 9.75566 12.5408C9.38443 12.4928 9.03955 12.3232 8.77487 12.0585C8.51019 11.7938 8.34062 11.449 8.29264 11.0777C8.24466 10.7065 8.32097 10.3299 8.50965 10.0066C8.69833 9.6833 8.98877 9.43161 9.33559 9.29081C9.68241 9.15002 10.0661 9.12805 10.4267 9.22834L13.5776 6.0775C13.6544 5.99791 13.7464 5.93442 13.8481 5.89075C13.9497 5.84708 14.0591 5.82409 14.1697 5.82313C14.2804 5.82216 14.3901 5.84325 14.4925 5.88515C14.5949 5.92705 14.688 5.98893 14.7662 6.06717C14.8445 6.14542 14.9063 6.23846 14.9482 6.34087C14.9901 6.44329 15.0112 6.55302 15.0103 6.66367C15.0093 6.77432 14.9863 6.88367 14.9426 6.98534C14.899 7.08701 14.8355 7.17896 14.7559 7.25583L11.6051 10.4067Z" fill="white"/>
</g>
<defs>
<clipPath id="clip0_181_655">
<rect width="20" height="20" fill="white"/>
</clipPath>
</defs>
</svg>
