<svg width="20" height="24" viewBox="0 0 20 24" fill="none" xmlns="http://www.w3.org/2000/svg">
<g clip-path="url(#clip0_702_36)">
<path d="M5.66342 18.19L6.80184 17.0531C7.68124 17.605 8.69887 17.8968 9.7371 17.8947H11.316C12.7817 17.8947 14.1874 17.3125 15.2237 16.2761C16.2601 15.2397 16.8424 13.8341 16.8424 12.3684V11.5789C16.8424 11.3696 16.9255 11.1687 17.0736 11.0207C17.2216 10.8726 17.4224 10.7895 17.6318 10.7895C17.8412 10.7895 18.042 10.8726 18.1901 11.0207C18.3381 11.1687 18.4213 11.3696 18.4213 11.5789V12.3684C18.4213 14.2528 17.6727 16.0601 16.3402 17.3926C15.0077 18.7251 13.2005 19.4737 11.316 19.4737V21.0526H12.895C13.1044 21.0526 13.3052 21.1358 13.4532 21.2838C13.6013 21.4319 13.6845 21.6327 13.6845 21.8421C13.6845 22.0515 13.6013 22.2523 13.4532 22.4003C13.3052 22.5484 13.1044 22.6316 12.895 22.6316H8.15815C7.94877 22.6316 7.74797 22.5484 7.59991 22.4003C7.45186 22.2523 7.36868 22.0515 7.36868 21.8421C7.36868 21.6327 7.45186 21.4319 7.59991 21.2838C7.74797 21.1358 7.94877 21.0526 8.15815 21.0526H9.7371V19.4737C8.22131 19.4737 6.81605 19 5.66342 18.19ZM4.47605 17.1447C3.28701 15.8384 2.62922 14.1348 2.63184 12.3684V11.5789C2.63184 11.3696 2.71502 11.1687 2.86308 11.0207C3.01113 10.8726 3.21194 10.7895 3.42132 10.7895C3.6307 10.7895 3.8315 10.8726 3.97956 11.0207C4.12761 11.1687 4.21079 11.3696 4.21079 11.5789V12.3684C4.21079 13.7705 4.73342 15.0526 5.59395 16.0268L4.47605 17.1447Z" fill="white"/>
<path d="M15.3896 18.19L14.2512 17.0531C13.3718 17.605 12.3543 17.8968 11.316 17.8947H9.7371C8.27143 17.8947 6.86565 17.3125 5.82926 16.2761C4.79288 15.2397 4.21079 13.8341 4.21079 12.3684V11.5789C4.21079 11.3696 4.12761 11.1687 3.97956 11.0207C3.8315 10.8726 3.6307 10.7895 3.42132 10.7895C3.21194 10.7895 3.01113 10.8726 2.86308 11.0207C2.71502 11.1687 2.63184 11.3696 2.63184 11.5789V12.3684C2.63184 14.2528 3.38028 16.0601 4.71278 17.3926C6.04527 18.7251 7.85267 19.4737 9.7371 19.4737V21.0526H8.15815C7.94877 21.0526 7.74797 21.1358 7.59991 21.2838C7.45186 21.4319 7.36868 21.6327 7.36868 21.8421C7.36868 22.0515 7.45186 22.2523 7.59991 22.4003C7.74797 22.5484 7.94877 22.6316 8.15815 22.6316H12.895C13.1044 22.6316 13.3052 22.5484 13.4532 22.4003C13.6013 22.2523 13.6845 22.0515 13.6845 21.8421C13.6845 21.6327 13.6013 21.4319 13.4532 21.2838C13.3052 21.1358 13.1044 21.0526 12.895 21.0526H11.316V19.4737C12.8318 19.4737 14.2369 19 15.3896 18.19ZM16.5769 17.1447C17.766 15.8384 18.4239 14.1348 18.4213 12.3684V11.5789C18.4213 11.3696 18.3381 11.1687 18.1901 11.0207C18.042 10.8726 17.8412 10.7895 17.6318 10.7895C17.4224 10.7895 17.2216 10.8726 17.0736 11.0207C16.9255 11.1687 16.8424 11.3696 16.8424 11.5789V12.3684C16.8424 13.7705 16.3196 15.0526 15.4591 16.0268L16.5769 17.1447Z" fill="white"/>
<path d="M10.5004 15.85C12.899 15.85 14.8504 13.9695 14.8504 11.6578V5.19215C14.8504 2.88057 12.899 1 10.5004 1C8.1018 1 6.15039 2.88057 6.15039 5.19215V11.6578C6.15039 13.9695 8.1018 15.85 10.5004 15.85ZM6.9413 5.19215C6.9413 3.29006 8.53799 1.7425 10.5004 1.7425C12.4628 1.7425 14.0595 3.29006 14.0595 5.19215V11.6578C14.0595 13.56 12.4628 15.1075 10.5004 15.1075C8.53799 15.1075 6.9413 13.56 6.9413 11.6578V5.19215Z" fill="white" stroke="white" stroke-width="0.8"/>
</g>
<defs>
<clipPath id="clip0_702_36">
<rect width="20" height="23.1579" fill="white"/>
</clipPath>
</defs>
</svg>
