<svg width="20" height="20" viewBox="0 0 20 20" fill="none" xmlns="http://www.w3.org/2000/svg">
<g clip-path="url(#clip0_181_650)">
<path d="M18.3333 14.1667V15.8333C18.3333 16.4964 18.0699 17.1323 17.6011 17.6011C17.1323 18.0699 16.4964 18.3333 15.8333 18.3333L4.16667 18.3333C3.50363 18.3333 2.86774 18.0699 2.3989 17.6011C1.93006 17.1323 1.66667 16.4964 1.66667 15.8333L1.66667 14.1667C1.66667 13.9457 1.57887 13.7337 1.42259 13.5774C1.26631 13.4211 1.05435 13.3333 0.833333 13.3333C0.61232 13.3333 0.400358 13.4211 0.244078 13.5774C0.0877974 13.7337 0 13.9457 0 14.1667L0 15.8333C0.00132321 16.938 0.440735 17.997 1.22185 18.7782C2.00296 19.5593 3.062 19.9987 4.16667 20L15.8333 20C16.938 19.9987 17.997 19.5593 18.7782 18.7782C19.5593 17.997 19.9987 16.938 20 15.8333V14.1667C20 13.9457 19.9122 13.7337 19.7559 13.5774C19.5996 13.4211 19.3877 13.3333 19.1667 13.3333C18.9457 13.3333 18.7337 13.4211 18.5774 13.5774C18.4211 13.7337 18.3333 13.9457 18.3333 14.1667Z" fill="white"/>
<path d="M4.41066 4.55206L8.23232 0.729561C8.7019 0.262307 9.33738 0 9.99982 0C10.6623 0 11.2977 0.262307 11.7673 0.729561L15.589 4.55123C15.6686 4.6281 15.7321 4.72005 15.7757 4.82172C15.8194 4.92339 15.8424 5.03274 15.8434 5.14339C15.8443 5.25404 15.8232 5.36378 15.7813 5.46619C15.7394 5.5686 15.6776 5.66165 15.5993 5.73989C15.5211 5.81813 15.428 5.88001 15.3256 5.92191C15.2232 5.96381 15.1135 5.9849 15.0028 5.98394C14.8922 5.98297 14.7828 5.95999 14.6812 5.91631C14.5795 5.87264 14.4875 5.80915 14.4107 5.72956L10.8332 2.15373L10.8332 15.0004C10.8332 15.2214 10.7454 15.4334 10.5891 15.5897C10.4328 15.7459 10.2208 15.8337 9.99982 15.8337C9.77881 15.8337 9.56685 15.7459 9.41057 15.5897C9.25429 15.4334 9.16649 15.2214 9.16649 15.0004L9.16649 2.15289L5.58899 5.73039C5.51212 5.80999 5.42016 5.87347 5.31849 5.91715C5.21682 5.96082 5.10747 5.98381 4.99682 5.98477C4.88618 5.98573 4.77644 5.96465 4.67403 5.92275C4.57161 5.88085 4.47857 5.81897 4.40033 5.74072C4.32208 5.66248 4.26021 5.56944 4.21831 5.46702C4.1764 5.36461 4.15532 5.25488 4.15628 5.14423C4.15724 5.03358 4.18023 4.92423 4.22391 4.82256C4.26758 4.72089 4.33107 4.62893 4.41066 4.55206Z" fill="white"/>
</g>
<defs>
<clipPath id="clip0_181_650">
<rect width="20" height="20" fill="white" transform="translate(0 20) rotate(-90)"/>
</clipPath>
</defs>
</svg>
