<svg width="18" height="18" viewBox="0 0 18 18" fill="none" xmlns="http://www.w3.org/2000/svg">
<path fill-rule="evenodd" clip-rule="evenodd" d="M8.5236 0.00765993C7.92191 0.074986 7.26664 0.277869 6.69295 0.57443C5.71327 1.0809 1.09979 3.61467 0.94661 3.73039C0.578039 4.00889 0.279167 4.43051 0.107805 4.91367C0.0214737 5.15713 0.0138076 5.22271 0.0153548 5.70402C0.0169373 6.19934 0.0230913 6.24524 0.124333 6.51972C0.299809 6.99524 0.554232 7.35887 0.905818 7.63668C1.0725 7.76836 5.78648 10.4017 6.71257 10.8804C8.1725 11.6351 9.81136 11.6407 11.254 10.8958C12.1598 10.4282 16.9177 7.77611 17.08 7.64833C17.4536 7.35453 17.72 6.96624 17.8803 6.48189C18.0082 6.09538 18.0375 5.53216 17.9493 5.15115C17.8264 4.62018 17.5229 4.12407 17.1129 3.78404C16.9865 3.67921 15.9028 3.0681 14.1774 2.12865C12.6731 1.30955 11.3294 0.582863 11.1914 0.513764C10.5451 0.190019 9.87308 0.023116 9.13994 0.00418505C8.87831 -0.00254756 8.60096 -0.000991106 8.5236 0.00765993ZM9.85989 1.57288C10.0146 1.61281 10.2282 1.68234 10.3346 1.72741C10.441 1.77247 11.8011 2.50216 13.3571 3.34891C15.2442 4.37578 16.2264 4.92977 16.3068 5.01248C16.4837 5.1947 16.5693 5.42125 16.5693 5.7079C16.5693 5.99486 16.4847 6.20209 16.287 6.39962C16.1987 6.48783 15.2889 7.00982 13.5598 7.96426C10.5871 9.60524 10.4739 9.66544 10.1412 9.78243C9.4322 10.0317 8.55971 10.0342 7.86347 9.78883C7.5513 9.67879 7.34235 9.56753 4.44439 7.96777C2.72012 7.01594 1.79744 6.48674 1.70967 6.39929C1.33396 6.02491 1.32482 5.38832 1.68973 5.0127C1.76952 4.93053 2.70869 4.39964 4.48107 3.43477C5.95014 2.63504 7.26291 1.92464 7.3983 1.85619C7.71071 1.69816 8.03128 1.58751 8.36591 1.52213C8.7303 1.45097 9.48699 1.47667 9.85989 1.57288ZM16.9272 9.40924C16.7923 9.4762 15.3978 10.2408 13.8283 11.1083C10.5889 12.8988 10.4782 12.9578 10.1412 13.0763C9.42253 13.3291 8.57413 13.3291 7.85545 13.0763C7.52792 12.9612 7.45333 12.9217 4.16306 11.1234C2.59644 10.2671 1.20434 9.51189 1.06948 9.44511C0.778342 9.30094 0.639474 9.2941 0.393807 9.41181C0.149793 9.52876 0.0229858 9.72357 0.00266007 10.0127C-0.0181931 10.3094 0.0830134 10.5183 0.325586 10.6792C0.491145 10.7891 5.22218 13.381 6.45083 14.035C7.05842 14.3584 7.32558 14.4684 7.79922 14.59C8.94776 14.8851 10.1713 14.7484 11.2191 14.2081C11.7741 13.9219 17.4909 10.7634 17.6711 10.6434C17.9137 10.4819 18.0148 10.273 17.994 9.97651C17.9737 9.68737 17.8469 9.49256 17.6029 9.37561C17.357 9.25779 17.2183 9.2647 16.9272 9.40924ZM16.9272 12.667C16.7923 12.7339 15.3978 13.4985 13.8283 14.366C12.2588 15.2335 10.8425 16.0117 10.681 16.0954C9.56393 16.6741 8.43125 16.6733 7.31123 16.0931C7.14729 16.0082 5.73099 15.2379 4.16391 14.3814C2.59682 13.5249 1.20434 12.7696 1.06948 12.7028C0.778342 12.5586 0.639438 12.5518 0.393807 12.6695C0.149793 12.7865 0.0229858 12.9813 0.00266007 13.2704C-0.0181931 13.5672 0.0830134 13.776 0.325586 13.9368C0.490758 14.0463 6.13912 17.1367 6.74773 17.4506C8.15749 18.1777 9.82613 18.1834 11.2191 17.466C11.7654 17.1846 17.4894 14.0219 17.6711 13.901C17.9137 13.7396 18.0149 13.5308 17.994 13.2342C17.9737 12.9451 17.8469 12.7503 17.6029 12.6333C17.357 12.5155 17.2183 12.5224 16.9272 12.667Z" fill="white"/>
</svg>
