<svg xmlns="http://www.w3.org/2000/svg" viewBox="0 0 48 48"><defs><filter id="a"><feGaussianBlur stdDeviation=".205"/></filter></defs><path fill="#e9b96e" stroke="#573a0d" d="M3.464 22v12L24.5 46.145l21-12.415V22.269L24.249 10 3.464 22z"/><g stroke="#2e3436"><path fill="#2e3436" d="m8.5 30.907-2-1.155v6L17.321 42v-2l-1.732-1v-2L13.5 35.794v-4l-5-2.887v2z"/><path fill="#555753" d="m6.928 36 3.464-2 3.464 2 1.644.949v2l2 1.155v2L6.928 36z"/></g><g stroke-linejoin="round"><path fill="#fce94f" stroke="#625802" d="m25.981 19 5.519 3.187v2L38.094 28l3.469-2 3.938-2.269v2.539-4L32.909 15l-6.928 4z"/><path fill="#e9b96e" stroke="#573a0d" stroke-dashoffset=".5" d="m24.84 18.341 8.66-5v2l-8.66 5v-2z"/><path fill="#73d216" stroke="#325b09" d="M25.981 9 3.464 22 17.5 30.104l14-7.917-6.66-3.845 8.66-5L25.981 9z"/></g><path fill="#729fcf" stroke="#19314b" d="M17.5 32.104v2l1.553.896v2l5.447 3.145 12-7.072v-2.147l2-1.155v-1.544l-7-4.041-14 7.917z"/><path fill="#2e3436" d="m13.856 20 6.928 4-6.928 4-6.928-4 6.928-4z" filter="url(#a)" opacity=".25"/><path fill="#c17d11" stroke="#8f5902" d="m12.124 23 1.732 1 1.732-1v-6l-1.732-1-1.732 1v6z"/><path fill="#4e9a06" stroke="#316004" d="M6.5 15.753 13.856 20l6.644-3.836V7.836L13.856 4 6.5 8.247v7.506z"/><path fill="#2e3436" d="m13.856 20 5.196 3-5.196 3-5.196-3 5.196-3z" filter="url(#a)" opacity=".25" transform="translate(24.249)"/><path fill="#4e9a06" stroke="#316004" d="m36.5 23.073 1.605.927 1.395-.805v-8.389L38.105 14 36.5 15.073v8z"/><path fill="none" stroke="#ef2929" stroke-dasharray=".5 .5" stroke-dashoffset=".25" stroke-width=".5" d="m12.124 33-.866-.5"/><path fill="#888a85" stroke="#2e3436" stroke-dashoffset=".5" d="m45.5 26.731-4 2.309v1l-2 1.155v2l-2 1.155v4l8-4.619v-7z"/></svg>