<?xml version="1.0" encoding="utf-8"?>
<!-- Generator: Adobe Illustrator 22.1.0, SVG Export Plug-In . SVG Version: 6.00 Build 0)  -->
<svg version="1.1" id="Layer_1" xmlns="http://www.w3.org/2000/svg" xmlns:xlink="http://www.w3.org/1999/xlink" x="0px" y="0px"
	 width="145px" height="35px" viewBox="0 0 145 35" style="enable-background:new 0 0 145 35;" xml:space="preserve">
<style type="text/css">
	.st0{fill:#FFFFFF;}
	.st1{fill-rule:evenodd;clip-rule:evenodd;fill:#FFFFFF;}
</style>
<g>
	<g>
		<path class="st0" d="M53.4,17.6l-6,6.1v7h-1.9V4.2h1.9v17.1L64,4.2h2.4L54.7,16.2l12.5,14.5h-2.4L53.4,17.6z"/>
		<path class="st0" d="M85.4,18.2v12.6h-1.8v-3.5c-1.3,2.3-3.7,3.7-7.1,3.7c-4.4,0-7.1-2.3-7.1-5.6c0-3,1.9-5.5,7.4-5.5h6.8v-1.6
			c0-3.7-2-5.6-5.9-5.6c-2.7,0-5.2,1-6.8,2.5l-0.9-1.4c2-1.7,4.9-2.8,7.9-2.8C82.6,10.8,85.4,13.3,85.4,18.2z M83.5,24.9v-3.7h-6.8
			c-4.1,0-5.5,1.7-5.5,4c0,2.6,2,4.2,5.5,4.2C80,29.3,82.3,27.7,83.5,24.9z"/>
		<path class="st0" d="M90.2,28.3l0.9-1.5c1.5,1.3,4.2,2.4,7.1,2.4c4.2,0,5.8-1.5,5.8-3.7c0-5.8-13.1-1.5-13.1-9.3
			c0-3,2.5-5.4,7.5-5.4c2.5,0,5.2,0.8,6.8,1.9l-0.9,1.5c-1.7-1.2-3.8-1.8-6-1.8c-3.9,0-5.6,1.6-5.6,3.7c0,6,13.1,1.7,13.1,9.3
			c0,3.2-2.8,5.4-7.8,5.4C94.9,30.9,91.8,29.8,90.2,28.3z"/>
		<path class="st0" d="M143.8,19.1v11.6h-1.9V19.3c0-4.5-2.3-6.8-6.2-6.8c-4.5,0-7.2,3-7.2,7.7v10.5h-1.9V19.3
			c0-4.5-2.3-6.8-6.2-6.8c-4.5,0-7.2,3-7.2,7.7v10.5h-1.9V10.9h1.8v4.2c1.3-2.8,4-4.4,7.6-4.4c3.6,0,6.2,1.6,7.2,4.8
			c1.3-2.9,4.2-4.8,8-4.8C140.7,10.8,143.8,13.6,143.8,19.1z"/>
	</g>
	<path class="st1" d="M5.5,5.6h11.6l-6.5,6.5V17l5.7-5.7l5.7-5.7l4.5-4.5h-21H5H1.1v3.9v25.2v3.9H5h0.5l4.7-4.7l9.7-9.7l5.1,5.1
		l4.5,4.5H23L19.8,26l-1.6,1.6l-1.6,1.6l-4.7,4.7h18.2c1.1,0,2.1-0.5,2.8-1.3c0.6-0.7,1-1.6,1-2.6V4.9V1.1h-0.1l-1.1,1.1l-3.4,3.4
		L7.5,27.4l-2,2l0-7.3l0-4.9V5.6z"/>
</g>
</svg>
