<?xml version="1.0" encoding="utf-8"?>
<!-- Generator: Adobe Illustrator 22.1.0, SVG Export Plug-In . SVG Version: 6.00 Build 0)  -->
<svg version="1.1" id="Layer_1" xmlns="http://www.w3.org/2000/svg" xmlns:xlink="http://www.w3.org/1999/xlink" x="0px" y="0px"
	 viewBox="0 0 61.3 61.3" style="enable-background:new 0 0 61.3 61.3;" xml:space="preserve">
<style type="text/css">
	.st0{fill-rule:evenodd;clip-rule:evenodd;fill:#0385C3;}
</style>
<g>
	<path class="st0" d="M8.3,8.4H30L17.9,20.5v9.1L28.5,19L39.1,8.4L47.5,0H8.3H7.2H0v7.2v46.9v7.2h7.2h0.9l8.8-8.8l18.1-18.1l9.6,9.6
		l8.5,8.5H40.8l-5.9-5.9l-3,3l-3,3l-8.8,8.8h33.9c2.1,0,4-0.9,5.3-2.4c1.2-1.3,1.9-3,1.9-4.8V7.2V0h-0.2l-2,2l-6.4,6.4L12,49.1
		l-3.7,3.7l0-13.6l0-9.1V8.4z"/>
</g>
</svg>
