<?xml version="1.0" encoding="utf-8"?>
<!-- Generator: Adobe Illustrator 22.1.0, SVG Export Plug-In . SVG Version: 6.00 Build 0)  -->
<svg version="1.1" id="Layer_1" xmlns="http://www.w3.org/2000/svg" xmlns:xlink="http://www.w3.org/1999/xlink" x="0px" y="0px"
	 width="561.4px" height="61.3px" viewBox="0 0 561.4 61.3" style="enable-background:new 0 0 561.4 61.3;" xml:space="preserve">
<style type="text/css">
	.st0{fill:#FFFFFF;}
	.st1{fill:#01ABE4;}
</style>
<title>kasm_worksaces</title>
<path class="st0" d="M86.4,29.6l-8.6,8.8v10.1H75V10.2h2.8v24.6l23.9-24.6h3.4L88.3,27.6l18,20.9h-3.4L86.4,29.6z"/>
<path class="st0" d="M132.5,30.4v18.1h-2.6v-5.1c-1.8,3.3-5.3,5.3-10.3,5.3c-6.4,0-10.3-3.3-10.3-8.1c0-4.3,2.7-8,10.7-8h9.8v-2.3
	c0-5.3-2.9-8.2-8.5-8.2c-3.6,0-7.1,1.2-9.8,3.6l-1.4-2c3.2-2.7,7.3-4.1,11.4-4C128.5,19.7,132.5,23.3,132.5,30.4z M129.7,40v-5.4
	H120c-5.9,0-8,2.5-8,5.7c0,3.7,2.9,6,7.9,6C124.8,46.4,128.1,44.1,129.7,40z"/>
<path class="st0" d="M139.5,45l1.3-2.2c2.9,2.3,6.6,3.5,10.3,3.4c6,0,8.4-2.1,8.4-5.4c0-8.3-18.9-2.2-18.9-13.4
	c0-4.3,3.6-7.8,10.8-7.8c3.6,0,7.6,1.1,9.8,2.8l-1.3,2.2c-2.5-1.7-5.5-2.6-8.6-2.6c-5.6,0-8.1,2.3-8.1,5.4c0,8.6,18.9,2.5,18.9,13.4
	c0,4.6-4,7.8-11.3,7.8C146.3,48.7,141.8,47.1,139.5,45z"/>
<path class="st0" d="M216.8,31.8v16.7h-2.7V32c0-6.5-3.3-9.9-8.9-9.9c-6.5,0-10.4,4.3-10.4,11.1v15.2H192V32c0-6.5-3.3-9.9-8.9-9.9
	c-6.5,0-10.4,4.3-10.4,11.1v15.2h-2.7V19.9h2.6V26c1.9-4,5.7-6.3,10.9-6.3s8.9,2.4,10.4,6.9c1.9-4.2,6-6.9,11.5-6.9
	C212.3,19.7,216.8,23.8,216.8,31.8z"/>
<path class="st0" d="M294.2,10.2l-13,38.3h-3l-11.9-34.4l-11.9,34.4h-3l-13-38.3h3l11.6,34.5l12-34.5h2.7l11.9,34.5l11.8-34.5H294.2
	z"/>
<path class="st0" d="M296.1,34.2c0-8.5,6.1-14.5,14.3-14.5s14.3,6,14.3,14.5s-6.1,14.5-14.3,14.5S296.1,42.7,296.1,34.2z
	 M321.9,34.2c0-7.2-4.9-12-11.5-12s-11.5,4.9-11.5,12s4.9,12,11.5,12S321.9,41.4,321.9,34.2z"/>
<path class="st0" d="M346.7,19.7v2.7c-0.2,0-0.4-0.1-0.7-0.1c-6.3,0-10.1,4.2-10.1,11.3v14.9h-2.7V19.9h2.6v6.2
	C337.5,22,341.3,19.7,346.7,19.7z"/>
<path class="st0" d="M364.4,33.2l-7.4,6.8v8.5h-2.7V7.9h2.7v28.7l18.3-16.7h3.5l-12.3,11.5l13.5,17h-3.4L364.4,33.2z"/>
<path class="st0" d="M381.3,45l1.3-2.2c2.9,2.3,6.6,3.5,10.3,3.4c6,0,8.4-2.1,8.4-5.4c0-8.3-18.9-2.2-18.9-13.4
	c0-4.3,3.6-7.8,10.8-7.8c3.6,0,7.5,1.1,9.8,2.8l-1.3,2.2c-2.5-1.7-5.5-2.6-8.6-2.6c-5.6,0-8,2.3-8,5.4c0,8.6,18.9,2.5,18.9,13.4
	c0,4.6-4,7.8-11.3,7.8C388,48.7,383.5,47.1,381.3,45z"/>
<path class="st0" d="M440.1,34.2c0,8.6-6.1,14.5-14.1,14.5c-4.8,0.1-9.3-2.5-11.6-6.7V59h-2.7V19.9h2.6v6.7
	c2.2-4.4,6.8-7.1,11.7-6.9C434,19.7,440.1,25.7,440.1,34.2z M437.4,34.2c0-7.2-5-12-11.5-12s-11.5,4.9-11.5,12s4.9,12,11.5,12
	S437.4,41.4,437.4,34.2L437.4,34.2z"/>
<path class="st0" d="M469.1,30.4v18.1h-2.6v-5.1c-1.8,3.3-5.3,5.3-10.3,5.3c-6.4,0-10.3-3.3-10.3-8.1c0-4.3,2.7-8,10.7-8h9.8v-2.3
	c0-5.3-2.9-8.2-8.5-8.2c-3.6,0-7.1,1.2-9.8,3.6l-1.4-2c3.2-2.7,7.3-4.1,11.4-4C465.1,19.7,469.1,23.3,469.1,30.4z M466.4,40v-5.4
	h-9.7c-5.9,0-8,2.5-8,5.7c0,3.7,2.9,6,7.9,6C461.4,46.4,464.7,44.1,466.4,40z"/>
<path class="st0" d="M477.3,34.2c0-8.5,6.1-14.5,14.4-14.5c4.5,0,8.5,1.8,10.8,5.3l-2,1.5c-2-2.8-5.3-4.4-8.8-4.3
	c-6.7,0-11.6,4.8-11.6,12s4.9,12,11.6,12c3.5,0.1,6.8-1.5,8.8-4.3l2,1.5c-2.4,3.4-6.3,5.3-10.8,5.3
	C483.4,48.7,477.3,42.7,477.3,34.2z"/>
<path class="st0" d="M534.4,34.8h-24.6c0.3,6.8,5.2,11.4,12.1,11.4c3.5,0.1,6.9-1.3,9.1-4l1.6,1.8c-2.7,3.1-6.7,4.8-10.8,4.6
	c-8.6,0-14.7-6-14.7-14.5s5.8-14.5,13.7-14.5s13.6,5.9,13.6,14.4C534.5,34.3,534.4,34.6,534.4,34.8z M509.9,32.7h21.9
	c-0.4-6.2-4.9-10.6-10.9-10.6S510.3,26.5,509.9,32.7L509.9,32.7z"/>
<path class="st0" d="M538.7,45l1.3-2.2c2.9,2.3,6.6,3.5,10.3,3.4c6,0,8.4-2.1,8.4-5.4c0-8.3-18.9-2.2-18.9-13.4
	c0-4.3,3.6-7.8,10.8-7.8c3.6,0,7.5,1.1,9.8,2.8l-1.3,2.2c-2.5-1.7-5.5-2.6-8.6-2.6c-5.6,0-8,2.3-8,5.4c0,8.6,18.9,2.5,18.9,13.4
	c0,4.6-4,7.8-11.3,7.8C545.5,48.7,541,47.1,538.7,45z"/>
<path class="st1" d="M8.3,8.4H30L17.9,20.5v9.1L28.5,19L39.1,8.5L47.5,0H0v61.3h8.1l8.8-8.8l18.1-18.1l9.6,9.6l8.5,8.5H40.8
	l-5.9-5.9l-3,3l-3,3l-8.8,8.8h33.9c4,0,7.2-3.3,7.2-7.3c0,0,0,0,0-0.1V0h-0.2l-2,2l-6.4,6.4L12,49.1l-3.7,3.7V8.4z"/>
</svg>
