<?xml version="1.0" encoding="utf-8"?>
<!-- Generator: Adobe Illustrator 22.1.0, SVG Export Plug-In . SVG Version: 6.00 Build 0)  -->
<svg version="1.1" id="Layer_1" xmlns="http://www.w3.org/2000/svg" xmlns:xlink="http://www.w3.org/1999/xlink" x="0px" y="0px"
	 viewBox="0 0 1792 1792" style="enable-background:new 0 0 1792 1792;" xml:space="preserve">
<style type="text/css">
	.st0{fill:#727272;}
</style>
<g transform="matrix(1,0,0,-1,197.42373,1300.6102)">
	<path class="st0" d="M1408-125c0-80-24.3-143.2-73-189.5S1221.7-384,1141-384H267c-80.7,0-145.3,23.2-194,69.5S0-205,0-125
		C0-89.7,1.2-55.2,3.5-21.5s7,70,14,109S33.3,162.7,44,196s25,65.8,43,97.5s38.7,58.7,62,81s51.8,40.2,85.5,53.5s70.8,20,111.5,20
		c6,0,20-7.2,42-21.5s46.8-30.3,74.5-48s63.7-33.7,108-48S659.3,309,704,309s89.2,7.2,133.5,21.5s80.3,30.3,108,48
		s52.5,33.7,74.5,48s36,21.5,42,21.5c40.7,0,77.8-6.7,111.5-20s62.2-31.2,85.5-53.5s44-49.3,62-81s32.3-64.2,43-97.5
		s19.5-69.5,26.5-108.5s11.7-75.3,14-109S1408-89.7,1408-125z M1088,768c0-106-37.5-196.5-112.5-271.5S810,384,704,384
		s-196.5,37.5-271.5,112.5S320,662,320,768s37.5,196.5,112.5,271.5S598,1152,704,1152s196.5-37.5,271.5-112.5S1088,874,1088,768z"/>
</g>
</svg>
